<svg xmlns="http://www.w3.org/2000/svg" viewBox="0 0 64 64" fill="none" width="64" height="64">
  <defs>
    <linearGradient id="ak-grad-nav" x1="8" y1="4" x2="56" y2="60" gradientUnits="userSpaceOnUse">
      <stop stop-color="#67e8f9" />
      <stop offset="0.5" stop-color="#22d3ee" />
      <stop offset="1" stop-color="#2563eb" />
    </linearGradient>
    <linearGradient id="ak-body-nav" x1="18" y1="28" x2="46" y2="56" gradientUnits="userSpaceOnUse">
      <stop stop-color="#38bdf8" />
      <stop offset="1" stop-color="#0ea5e9" />
    </linearGradient>
  </defs>
  <!-- Outer Shield (filled) -->
  <path d="M32 4C20 4 10 8 8 10V34C8 48 18 56 32 60C46 56 56 48 56 34V10C54 8 44 4 32 4Z" fill="url(#ak-grad-nav)" fill-opacity="0.15" stroke="url(#ak-grad-nav)" stroke-width="3" stroke-linejoin="round" />
  <!-- Padlock Shackle -->
  <path d="M23 28V20C23 14 27 10 32 10C37 10 41 14 41 20V28" stroke="url(#ak-grad-nav)" stroke-width="5" stroke-linecap="round" />
  <!-- Padlock Body -->
  <rect x="19" y="28" width="26" height="22" rx="4" fill="url(#ak-body-nav)" />
  <!-- Checkmark -->
  <path d="M25.5 39L30 43.5L39 34" stroke="white" stroke-width="4" stroke-linecap="round" stroke-linejoin="round" />
  <!-- Click Loop -->
  <path d="M20 46C14 52 8 48 6 42" stroke="url(#ak-grad-nav)" stroke-width="4" stroke-linecap="round" />
  <circle cx="6" cy="38" r="3" fill="url(#ak-grad-nav)" />
</svg>

